<?xml version="1.0" encoding="UTF-8" standalone="no"?>
<svg width="15px" height="10px" viewBox="0 0 15 10" version="1.1" xmlns="http://www.w3.org/2000/svg" xmlns:xlink="http://www.w3.org/1999/xlink" xmlns:sketch="http://www.bohemiancoding.com/sketch/ns">
    <!-- Generator: Sketch 3.4.2 (15855) - http://www.bohemiancoding.com/sketch -->
    <title>Shape</title>
    <desc>Created with Sketch.</desc>
    <defs></defs>
    <g id="Page-1" stroke="none" stroke-width="1" fill="none" fill-rule="evenodd" sketch:type="MSPage">
        <path d="M3,6 L4,6 L4,7 L3,7 C1.5,7 0,5.31 0,3.5 C0,1.69 1.55,0 3,0 L7,0 C8.45,0 10,1.69 10,3.5 C10,4.91 9.09,6.22 8,6.75 L8,5.59 C8.58,5.14 9,4.32 9,3.5 C9,2.22 7.98,1 7,1 L3,1 C2.02,1 1,2.22 1,3.5 C1,4.78 2,6 3,6 L3,6 Z M12,3 L11,3 L11,4 L12,4 C13,4 14,5.22 14,6.5 C14,7.78 12.98,9 12,9 L8,9 C7.02,9 6,7.78 6,6.5 C6,5.67 6.42,4.86 7,4.41 L7,3.25 C5.91,3.78 5,5.09 5,6.5 C5,8.31 6.55,10 8,10 L12,10 C13.45,10 15,8.31 15,6.5 C15,4.69 13.5,3 12,3 L12,3 Z" id="Shape" fill="#000000" sketch:type="MSShapeGroup"></path>
    </g>
</svg>