<?xml version="1.0" encoding="UTF-8" standalone="no"?>
<svg width="205px" height="164px" viewBox="0 0 205 164" version="1.1" xmlns="http://www.w3.org/2000/svg" xmlns:xlink="http://www.w3.org/1999/xlink" xmlns:sketch="http://www.bohemiancoding.com/sketch/ns">
    <!-- Generator: Sketch 3.4.2 (15855) - http://www.bohemiancoding.com/sketch -->
    <title>body</title>
    <desc>Created with Sketch.</desc>
    <defs></defs>
    <g id="Page-1" stroke="none" stroke-width="1" fill="none" fill-rule="evenodd" sketch:type="MSPage">
        <path d="M19.5482649,33.5741892 L22.5594054,8.77126737 C22.5594054,8.77126737 24.1863594,2.7732204 30.1863594,0.853298581 C36.1863594,-1.06662324 45.852375,0.853298598 45.852375,0.853298598 L81.8123351,0.853298617 L103.457843,34.7995877 C103.457843,34.7995877 106.758624,39.7263455 103.066241,46.2976346 C99.3738585,52.8689236 88.2127257,68.2087674 88.2127257,68.2087674 L90.0369444,84.4831814 C90.0369444,84.4831814 90.3429392,85.5965892 90.3673577,87.1039804 L132.184649,119.016039 C134.601421,117.231441 137.594094,115.04651 140.927083,112.666667 C149.541667,106.515625 153.871094,112.884115 153.871094,112.884115 L205.066406,163.746094 L70,163.69401 L124.30858,124.855783 L84.5304074,94.8358668 C84.1365477,94.9242053 83.7170527,94.9954393 83.2703429,95.0476346 C73.9012023,96.1423611 73.5203429,87.2282986 73.5203429,87.2282986 L73.3902072,86.4285456 L64.4507633,79.6820981 L77.6170226,99.8874783 C77.6170226,99.8874783 81.6814757,107.018338 78.8338194,112.611111 C75.9861632,118.203885 57.9090148,158.064236 57.9090148,158.064236 C57.9090148,158.064236 55.4646788,163.981228 44.6189757,162.699002 C33.7732726,161.416775 36.9099913,162.070095 36.9099913,162.070095 C36.9099913,162.070095 30.4822572,162.070095 36.4002257,151.658963 C42.3181942,141.24783 52.9353819,112.317166 52.9353819,112.317166 C52.9353819,112.317166 54.9646779,109.949978 52.8484679,106.455838 C50.7322578,102.961697 34.5652648,80.2605252 34.5652648,80.2605252 L39.3211241,105.00076 C39.3211241,105.00076 39.810382,110.828885 38.1053038,116.020291 C36.4002256,121.211697 24.7937804,156.255642 24.7937804,156.255642 C24.7937804,156.255642 21.8621398,162.943142 15.022296,162.943142 C8.18245225,162.943142 6.7488585,162.303494 6.7488585,162.303494 C6.7488585,162.303494 -2.18668837,162.412869 0.505694438,155.365994 C3.19807725,148.319119 12.3933898,113.93826 12.3933898,113.93826 L8.77717881,66.8991971 C8.77717881,66.8991971 7.44026385,58.0271267 14.6619444,50.6794705 C15.9501962,49.3687464 16.9346801,48.3927417 17.6827779,47.6737472 L8.59007364,40.0440624 C6.05504597,37.9169216 5.73104904,34.1295494 7.85672566,31.5962667 C9.98673642,29.0578187 13.7763109,28.7309447 16.303525,30.8515291 L19.5482649,33.5741892 Z M71.1086323,72.4070558 L70.2859679,67.3513455 C70.2859679,67.3513455 69.0808898,64.7566189 70.7967101,61.5534939 C72.5125304,58.3503689 75.9861632,53.1609158 75.9861632,53.1609158 L59.2027256,63.3212928 L71.1086323,72.4070558 Z M39.3260069,20.1374783 L36.0574523,34.3620877 L52.8738585,21.2790799 L39.3260069,20.1374783 Z" id="body" fill="#000000" sketch:type="MSShapeGroup"></path>
    </g>
</svg>