<?xml version="1.0" encoding="UTF-8" standalone="no"?>
<svg width="205px" height="293px" viewBox="0 0 205 293" version="1.1" xmlns="http://www.w3.org/2000/svg" xmlns:xlink="http://www.w3.org/1999/xlink" xmlns:sketch="http://www.bohemiancoding.com/sketch/ns">
    <!-- Generator: Sketch 3.4.2 (15855) - http://www.bohemiancoding.com/sketch -->
    <title>head</title>
    <desc>Created with Sketch.</desc>
    <defs></defs>
    <g id="Page-1" stroke="none" stroke-width="1" fill="none" fill-rule="evenodd" sketch:type="MSPage">
        <path d="M141.438329,109.794577 C141.588986,110.220541 141.697208,110.6169 141.759766,110.977656 C142.861595,117.331717 137.585449,132.552851 137.585449,132.552851 L137.585449,139.843867 C137.585449,139.843867 138.198242,142.438593 137.411621,143.915156 C136.625,145.391718 134.589355,145.369257 133.03125,144.050898 C131.473145,142.732539 130.436523,142.608515 130.436523,142.608515 C130.436523,142.608515 128.432129,144.763789 128.432129,145.795527 C128.432129,146.827265 129.458984,150.463984 126.504883,149.079707 C123.550781,147.695429 123.838867,147.472773 124.674316,149.28625 C125.509766,151.099726 128.350586,152.951289 125.727051,154.074824 C123.103516,155.198359 122.159668,155.93664 117.599121,155.93664 C113.038574,155.93664 106.020996,154.074824 106.020996,154.074824 L95.5960983,150.72166 L103.457843,163.051103 C103.457843,163.051103 106.758624,167.977861 103.066241,174.54915 C99.3738585,181.120439 88.2127257,196.460283 88.2127257,196.460283 L90.0369444,212.734697 C90.0369444,212.734697 90.3429392,213.848104 90.3673577,215.355496 L132.184649,247.267555 C134.601421,245.482956 137.594094,243.298025 140.927083,240.918182 C149.541667,234.76714 153.871094,241.13563 153.871094,241.13563 L205.066406,291.997609 L74.8867377,291.94741 C74.2917184,292.144706 73.6554622,292.251515 72.9943391,292.251515 L44.0056609,292.251515 C42.2980582,292.251515 40.7569085,291.53773 39.6634204,290.393862 C39.5616474,290.383372 39.4629662,290.373298 39.367291,290.363626 C38.2718382,291.525865 36.7175602,292.251515 34.9943391,292.251515 L6.00566089,292.251515 C2.68882597,292.251515 0,289.558481 0,286.251515 C0,286.212678 0.000369531391,286.173926 0.00110527004,286.135264 C-0.0145800718,285.418494 0.135848819,284.58552 0.505694438,283.617509 C3.19807725,276.570634 12.3933898,242.189775 12.3933898,242.189775 C12.3933898,242.189775 3.33935547,214.728566 2.15307617,208.874318 C0.966796875,203.02007 -2.33618164,197.107526 3.67578125,189.805009 C9.68774414,182.502492 7.44026385,186.278642 14.6619444,178.930986 C15.9501962,177.620262 16.9346801,176.644257 17.6827779,175.925262 L8.59007364,168.295578 C6.05504597,166.168437 5.73104904,162.381065 7.85672566,159.847782 C9.98673642,157.309334 13.7763109,156.98246 16.303525,159.103044 L19.5482649,161.825704 L22.5594054,137.022783 C22.5594054,137.022783 24.1863594,131.024736 30.1863594,129.104814 C36.1863594,127.184892 45.852375,129.104814 45.852375,129.104814 L81.0596586,129.104814 C82.4119465,128.293225 83.7937681,126.263493 82.9892578,121.219355 C82.8301997,120.222088 82.6904245,119.282469 82.5709632,118.391844 C79.4007376,115.73718 74.2947737,110.679381 72.296875,104.294484 C69.3059673,94.7361224 77.1057493,88.4757235 72.296875,79.060109 C67.4880007,69.6444945 58.0790957,76.2991881 53.6640625,67.8120622 C49.2490293,59.3249362 59.4880243,54.9988902 55.7265625,47.2065934 C51.9651007,39.4142966 39.8410687,42.3731321 37.109375,33.5171403 C34.3776813,24.6611485 38.5658071,20.6591056 45.546875,14.2046403 C52.5279429,7.75017495 58.4160294,3.08157685 72.296875,0.983937161 C86.1777206,-1.11370252 87.5081455,-0.055098148 99.2871094,6.08354654 C111.066073,12.2221912 109.292156,12.6814514 112.876953,22.1323747 C116.461751,31.5832979 110.088988,37.626668 112.876953,41.9116715 C116.85335,48.0232509 126.308865,45.216222 130.59375,54.200734 C134.878635,63.1852461 126.698501,71.9446093 130.59375,79.060109 C133.594861,84.5422755 141.655528,81.1190324 144.078125,87.903859 C146.500722,94.6886857 149.095261,105.561888 141.546875,109.73589 C141.51159,109.755402 141.475405,109.774964 141.438329,109.794577 Z M127.879752,131.838617 C128.042302,131.489257 128.124512,131.008301 128.124512,130.34966 C128.124512,127.312094 127.313708,126.469289 124,126.469289 C120.686292,126.469289 118,126.713949 118,129.751515 C118,132.080925 119.028294,132.539583 121.002179,132.626834 C121.067837,130.751583 122.608738,129.251515 124.5,129.251515 C126.117182,129.251515 127.478193,130.34831 127.879752,131.838617 Z M36.1475293,280.36227 C36.2291407,280.213894 36.313353,280.063308 36.4002257,279.910478 C42.3181942,269.499345 50.7636719,244.271809 50.7636719,244.271809 C50.7636719,244.271809 52.8798819,236.746419 50.7636719,233.252278 C49.4149065,231.025289 43.7211218,220.408195 39.321125,215.479817 C36.8175361,212.675581 34.4287109,215.479817 34.4287109,215.479817 L39.3211241,233.252275 C39.3211241,233.252275 39.810382,239.0804 38.1053038,244.271806 C36.7687392,248.341209 29.3482128,270.753706 26.2030915,280.251515 L34.9943391,280.251515 C35.3887721,280.251515 35.7743241,280.289599 36.1475293,280.36227 Z M60.6637672,280.251515 C65.8377613,268.873784 76.68236,245.088075 78.8338194,240.862626 C81.6814757,235.269853 77.6170226,228.138994 77.6170226,228.138994 L64.4507633,207.933613 L73.3902072,214.680061 L73.5203429,215.479814 C73.5203429,215.479814 73.9012023,224.393876 83.2703429,223.29915 C83.7170527,223.246955 84.1365477,223.175721 84.5304074,223.087382 L124.30858,253.107298 L78.9579822,285.539316 C78.6048822,282.566446 76.0695287,280.251515 72.9943391,280.251515 L60.6637672,280.251515 Z M71.1086323,200.658571 L70.2859679,195.602861 C70.2859679,195.602861 69.0808898,193.008134 70.7967101,189.805009 C72.5125304,186.601884 75.9861632,181.412431 75.9861632,181.412431 L59.2027256,191.572808 L71.1086323,200.658571 Z M39.3260069,148.388994 L36.0574523,162.613603 L52.8738585,149.530595 L39.3260069,148.388994 Z M169,280.251515 C170.104569,280.251515 171,279.356085 171,278.251515 C171,277.146946 170.104569,276.251515 169,276.251515 C167.895431,276.251515 167,277.146946 167,278.251515 C167,279.356085 167.895431,280.251515 169,280.251515 Z M133,282.251515 C134.104569,282.251515 135,281.356085 135,280.251515 C135,279.146946 134.104569,278.251515 133,278.251515 C131.895431,278.251515 131,279.146946 131,280.251515 C131,281.356085 131.895431,282.251515 133,282.251515 Z M160,289 C161.104569,289 162,288.104569 162,287 C162,285.895431 161.104569,285 160,285 C158.895431,285 158,285.895431 158,287 C158,288.104569 158.895431,289 160,289 Z M141,278 C142.104569,278 143,277.104569 143,276 C143,274.895431 142.104569,274 141,274 C139.895431,274 139,274.895431 139,276 C139,277.104569 139.895431,278 141,278 Z M154.5,276 C155.880712,276 157,274.880712 157,273.5 C157,272.119288 155.880712,271 154.5,271 C153.119288,271 152,272.119288 152,273.5 C152,274.880712 153.119288,276 154.5,276 Z M147,285 C148.104569,285 149,284.104569 149,283 C149,281.895431 148.104569,281 147,281 C145.895431,281 145,281.895431 145,283 C145,284.104569 145.895431,285 147,285 Z" id="head" fill="#000000" sketch:type="MSShapeGroup"></path>
    </g>
</svg>