<?xml version="1.0" encoding="UTF-8" standalone="no"?>
<svg width="205px" height="194px" viewBox="0 0 205 194" version="1.1" xmlns="http://www.w3.org/2000/svg" xmlns:xlink="http://www.w3.org/1999/xlink" xmlns:sketch="http://www.bohemiancoding.com/sketch/ns">
    <!-- Generator: Sketch 3.4.2 (15855) - http://www.bohemiancoding.com/sketch -->
    <title>construction</title>
    <desc>Created with Sketch.</desc>
    <defs></defs>
    <g id="Page-1" stroke="none" stroke-width="1" fill="none" fill-rule="evenodd" sketch:type="MSPage">
        <g id="construction" sketch:type="MSLayerGroup" fill="#000000">
            <ellipse id="head" sketch:type="MSShapeGroup" cx="111.5" cy="24.5" rx="26.5" ry="24.5"></ellipse>
            <path d="M19.5482649,63.5741892 L22.5594054,38.7712674 C22.5594054,38.7712674 24.1863594,32.7732204 30.1863594,30.8532986 C36.1863594,28.9333768 45.852375,30.8532986 45.852375,30.8532986 L81.8123351,30.8532986 L103.457843,64.7995877 C103.457843,64.7995877 106.758624,69.7263455 103.066241,76.2976346 C99.3738585,82.8689236 88.2127257,98.2087674 88.2127257,98.2087674 L90.0369444,114.483181 C90.0369444,114.483181 90.3429392,115.596589 90.3673577,117.10398 L132.184649,149.016039 C134.601421,147.231441 137.594094,145.04651 140.927083,142.666667 C149.541667,136.515625 153.871094,142.884115 153.871094,142.884115 L205.066406,193.746094 L70,193.69401 L124.30858,154.855783 L84.5304074,124.835867 C84.1365477,124.924205 83.7170527,124.995439 83.2703429,125.047635 C73.9012023,126.142361 73.5203429,117.228299 73.5203429,117.228299 L73.3902072,116.428546 L64.4507633,109.682098 L77.6170226,129.887478 C77.6170226,129.887478 81.6814757,137.018338 78.8338194,142.611111 C75.9861632,148.203885 57.9090148,188.064236 57.9090148,188.064236 C57.9090148,188.064236 55.4646788,193.981228 44.6189757,192.699002 C33.7732726,191.416775 36.9099913,192.070095 36.9099913,192.070095 C36.9099913,192.070095 30.4822572,192.070095 36.4002257,181.658963 C42.3181942,171.24783 52.9353819,142.317166 52.9353819,142.317166 C52.9353819,142.317166 54.9646779,139.949978 52.8484679,136.455838 C50.7322578,132.961697 34.5652648,110.260525 34.5652648,110.260525 L39.3211241,135.00076 C39.3211241,135.00076 39.810382,140.828885 38.1053038,146.020291 C36.4002256,151.211697 24.7937804,186.255642 24.7937804,186.255642 C24.7937804,186.255642 21.8621398,192.943142 15.022296,192.943142 C8.18245225,192.943142 6.7488585,192.303494 6.7488585,192.303494 C6.7488585,192.303494 -2.18668837,192.412869 0.505694438,185.365994 C3.19807725,178.319119 12.3933898,143.93826 12.3933898,143.93826 L8.77717881,96.8991971 C8.77717881,96.8991971 7.44026385,88.0271267 14.6619444,80.6794705 C15.9501962,79.3687464 16.9346801,78.3927417 17.6827779,77.6737472 L8.59007364,70.0440624 C6.05504597,67.9169216 5.73104904,64.1295494 7.85672566,61.5962667 C9.98673642,59.0578187 13.7763109,58.7309447 16.303525,60.8515291 L19.5482649,63.5741892 Z M71.1086323,102.407056 L70.2859679,97.3513455 C70.2859679,97.3513455 69.0808898,94.7566189 70.7967101,91.5534939 C72.5125304,88.3503689 75.9861632,83.1609158 75.9861632,83.1609158 L59.2027256,93.3212928 L71.1086323,102.407056 Z M39.3260069,50.1374783 L36.0574523,64.3620877 L52.8738585,51.2790799 L39.3260069,50.1374783 Z" id="body" sketch:type="MSShapeGroup"></path>
        </g>
    </g>
</svg>